<?xml version="1.0" standalone="no"?><!DOCTYPE svg PUBLIC "-//W3C//DTD SVG 1.1//EN" "http://www.w3.org/Graphics/SVG/1.1/DTD/svg11.dtd"><svg t="1524196522423" class="icon" style="" viewBox="0 0 1024 1024" version="1.1" xmlns="http://www.w3.org/2000/svg" p-id="10383" xmlns:xlink="http://www.w3.org/1999/xlink" width="200" height="200"><defs><style type="text/css"></style></defs><path d="M512.4 1020c-281.6 0-510-228.4-510-510S230.8 0 512.4 0s510 228.4 510 510-228.4 510-510 510z m0-1002.4C240.4 17.6 20 238 20 510s220.4 492.4 492.4 492.4S1004.8 782 1004.8 510 784.4 17.6 512.4 17.6zM740 528.2h-191.2v191.2c0 15-12.2 27.4-27.4 27.4-15 0-27.4-12.2-27.4-27.4v-191.2h-191.2c-15 0-27.4-12.2-27.4-27.4 0-15 12.2-27.4 27.4-27.4H494v-191.2c0-15 12.2-27.4 27.4-27.4 15 0 27.4 12.2 27.4 27.4v191.2H740c15 0 27.4 12.2 27.4 27.4s-12.2 27.4-27.4 27.4z" fill="#999999" p-id="10384"></path></svg>