<?xml version="1.0" standalone="no"?><!DOCTYPE svg PUBLIC "-//W3C//DTD SVG 1.1//EN" "http://www.w3.org/Graphics/SVG/1.1/DTD/svg11.dtd"><svg t="1526104425018" class="icon" style="" viewBox="0 0 1024 1024" version="1.1" xmlns="http://www.w3.org/2000/svg" p-id="6419" xmlns:xlink="http://www.w3.org/1999/xlink" width="400" height="400"><defs><style type="text/css"></style></defs><path d="M836.096 589.312c0 7.168 5.632 12.288 12.288 12.288 7.168 0 12.288-5.632 12.288-12.288 0-7.168-5.632-12.288-12.288-12.288-7.168-0.512-12.288 5.12-12.288 12.288z" fill="#dbdbdb" p-id="6420"></path><path d="M81.408 458.24c0 5.12 4.096 9.216 9.216 9.216s9.216-4.096 9.216-9.216-4.096-9.216-9.216-9.216-9.216 4.096-9.216 9.216z" fill="#dbdbdb" p-id="6421"></path><path d="M798.72 511.488c0-11.264-10.24-21.504-21.504-21.504s-21.504 10.24-21.504 21.504 10.24 21.504 21.504 21.504 21.504-9.728 21.504-21.504z m-55.808 0c0-18.944 15.872-34.304 34.304-34.304 18.944 0 34.304 15.872 34.304 34.304s-15.872 34.304-34.304 34.304c-18.944 0.512-34.304-15.36-34.304-34.304z" fill="#dbdbdb" p-id="6422"></path><path d="M823.296 274.944c0-11.264-10.24-21.504-21.504-21.504s-21.504 10.24-21.504 21.504 10.24 21.504 21.504 21.504c12.288 0 21.504-9.728 21.504-21.504z m-31.232 0c0-5.12 4.096-9.216 9.216-9.216s9.216 4.096 9.216 9.216-4.096 9.216-9.216 9.216c-4.608 0.512-9.216-4.096-9.216-9.216z m118.272 157.696h-10.752c-3.584 0-7.168 3.072-7.168 7.168 0 3.584 3.072 7.168 7.168 7.168h10.752v10.752c0 3.584 3.072 7.168 7.168 7.168 4.096 0 7.168-3.072 7.168-7.168v-10.752h10.752c3.584 0 7.168-3.072 7.168-7.168 0-3.584-3.072-7.168-7.168-7.168h-10.752v-10.752c0-3.584-3.072-7.168-7.168-7.168-3.584 0-7.168 3.072-7.168 7.168v10.752z" fill="#dbdbdb" p-id="6423"></path><path d="M164.352 635.392h-18.944c-3.072 0-6.656 2.048-6.656 6.656 0 4.096 2.048 6.656 6.656 6.656h18.944v18.944c0 3.072 2.048 6.656 6.656 6.656 3.584 0 6.656-2.048 6.656-6.656v-18.944h18.944c3.072 0 6.656-2.048 6.656-6.656 0-4.096-2.048-6.656-6.656-6.656h-18.944v-18.944c0-3.072-2.048-6.656-6.656-6.656-3.584 0-6.656 2.048-6.656 6.656v18.944z" fill="#dbdbdb" p-id="6424"></path><path d="M596.992 238.08c-3.072-2.048-7.168-1.536-9.216 1.536-2.048 3.072-1.536 7.168 1.536 9.216 7.68 5.632 14.336 10.752 20.992 15.872 3.072 2.048 7.168 2.048 9.216-1.536 2.048-3.072 2.048-7.168-1.536-9.216-7.68-5.12-13.312-10.24-20.992-15.872zM578.56 291.328l-5.632-25.088c-0.512-3.584-4.096-5.632-7.68-5.12-3.584 0.512-5.632 4.096-5.12 7.68l5.632 25.088c0.512 3.584 4.096 5.632 7.68 5.12 4.096-0.512 6.144-3.584 5.12-7.68z m31.744-3.072l-26.112 4.096c-3.584 0.512-6.656 4.096-5.632 7.168 0.512 3.072 3.584 6.656 7.168 5.632l26.112-4.096c3.584-0.512 6.656-4.096 5.632-7.168-0.512-4.096-3.584-7.168-7.168-5.632z m-46.08-34.304c3.584-0.512 5.632-4.096 5.12-7.68l-3.072-14.336c2.048 1.536 3.584 3.072 6.656 4.096 3.072 2.048 7.168 1.536 9.216-1.536 2.048-3.072 1.536-7.168-1.536-9.216-10.24-7.168-13.824-10.24-18.944-13.824l-2.048-1.536h-1.536l-3.584 0.512c-3.584 0.512-6.656 3.584-5.632 7.168 0 2.048 1.536 3.584 3.072 5.12l5.632 25.088c-0.512 5.12 3.072 6.656 6.656 6.144zM280.576 305.664c3.584-0.512 6.656-3.584 5.632-7.168l-2.048-25.088v-0.512c0-3.584-3.072-6.656-7.168-6.656s-6.656 3.072-6.656 7.168v1.536l2.048 25.088c1.024 4.096 4.608 6.144 8.192 5.632z m380.928 47.616c-0.512-3.584-3.584-6.656-7.168-5.632-3.584 0.512-6.656 3.584-5.632 7.168l2.048 26.112c0.512 3.584 3.584 6.656 7.168 5.632 3.584-0.512 6.656-3.584 5.632-7.168l-2.048-26.112z m-8.192-12.288c3.584-0.512 6.656-3.584 5.632-7.168l-2.048-26.112c-0.512-3.584-3.584-6.656-7.168-5.632-3.584 0.512-6.656 3.584-5.632 7.168l2.048 26.112c1.024 3.072 4.608 6.144 7.168 5.632z m-5.632-46.08h2.048c3.584-0.512 6.656-3.584 5.632-7.168v-3.584l-2.048-2.048c-6.656-5.12-12.288-10.752-19.456-16.384-3.072-2.048-7.168-2.048-9.216 1.536-2.048 3.072-2.048 7.168 1.536 9.216l9.216 7.168-5.632 0.512c-3.584 0.512-6.656 4.096-5.632 7.168 0.512 3.584 3.584 6.656 7.168 5.632l16.384-2.048c-0.512 0.512 0 0 0 0z m-113.664-81.408l-26.112 2.048c-3.584 0.512-6.656 3.584-5.632 7.168 0.512 3.584 3.584 6.656 7.168 5.632l26.112-2.048c3.584-0.512 6.656-3.584 5.632-7.168 0-2.56-3.584-5.632-7.168-5.632zM286.208 358.912c-3.584 0.512-6.656 3.584-5.632 7.168l2.048 26.112c0.512 3.584 3.584 6.656 7.168 5.632 3.584-0.512 6.656-3.584 5.632-7.168l-2.048-26.112c-0.512-4.096-3.584-6.656-7.168-5.632z m19.456-120.832l-5.632 0.512c-8.704 0.512-16.384 5.12-21.504 11.264-2.048 3.072-2.048 7.168 0.512 9.216 3.072 2.048 7.168 2.048 9.216-0.512 3.072-3.584 7.68-7.168 12.8-7.168L307.2 250.88c3.584-0.512 6.656-3.584 5.632-7.168 0-3.584-3.072-6.656-7.168-5.632z m183.296-19.456l-26.112 2.048c-3.584 0.512-6.656 3.584-5.632 7.168 0.512 3.584 3.584 6.656 7.168 5.632l26.112-2.048c3.584-0.512 6.656-3.584 5.632-7.168-0.512-2.56-3.584-6.144-7.168-5.632z m-203.264 133.12c3.584-0.512 6.656-3.584 5.632-7.168l-2.048-26.112c-0.512-3.584-3.584-6.656-7.168-5.632-3.584 0.512-6.656 3.584-5.632 7.168l2.048 26.112c0 3.072 3.584 6.144 7.168 5.632z m66.048-118.784l-26.112 2.048c-3.584 0.512-6.656 3.584-5.632 7.168 0.512 3.584 3.584 6.656 7.168 5.632L353.28 245.76c3.584-0.512 6.656-3.584 5.632-7.168-1.024-3.584-3.584-5.632-7.168-5.632z m91.136-9.216l-26.624 2.048c-3.584 0.512-6.656 3.584-5.632 7.168 0.512 3.584 3.584 6.656 7.168 5.632l26.112-2.048c3.584-0.512 6.656-3.584 5.632-7.168-1.024-3.584-3.072-6.656-6.656-5.632z m-45.056 5.12l-26.112 2.048c-3.584 0.512-6.656 3.584-5.632 7.168 0.512 3.584 3.584 6.656 7.168 5.632l26.112-2.048c3.584-0.512 6.656-3.584 5.632-7.168-1.024-3.584-3.584-6.656-7.168-5.632z" fill="#dbdbdb" p-id="6425"></path><path d="M227.84 779.776c0 18.944 108.544 34.304 242.176 34.304s243.2-14.848 243.2-34.304c0-18.944-108.544-34.304-243.2-34.304s-242.176 15.36-242.176 34.304z" fill="#dbdbdb" p-id="6426"></path><path d="M688.128 389.632h-136.192L441.856 333.824l-1.536-0.512H273.92c-19.968 0-35.84 15.872-35.84 35.84v308.224c0 19.968 15.872 35.84 35.84 35.84h414.208c19.968 0 35.84-15.872 35.84-35.84V425.472c0-19.456-15.872-35.84-35.84-35.84z m-435.712-20.48c0-11.776 9.728-21.504 21.504-21.504h162.816l83.456 42.496h-245.76c-8.192 0-15.36 2.56-21.504 7.168v-28.16z m457.216 307.712c0 11.776-9.728 21.504-21.504 21.504H273.92c-11.776 0-21.504-9.728-21.504-21.504V425.472c0-11.776 9.728-21.504 21.504-21.504h414.208c11.776 0 21.504 9.728 21.504 21.504v251.392z" fill="#dbdbdb" p-id="6427"></path><path d="M606.72 499.2h-79.872c-3.584 0-6.656 3.584-6.656 8.704 0 4.096 2.048 8.704 6.656 8.704h13.824c-2.048 11.264-2.048 29.696 3.584 47.616 0 0 7.68 22.528 0 44.032 0 0-7.68 17.92-2.56 33.792 1.024 3.072 2.56 6.144 4.608 8.704 0 0 17.92-11.264 42.496-5.632 0 0-0.512-1.024-0.512-3.072-1.024-6.144-3.072-22.016 2.56-35.328 0 0 10.752-21.504 0-53.76 0 0-5.12-17.92 2.048-34.304h14.336c3.584 0 6.656-3.584 6.656-8.704-0.512-6.144-4.096-10.752-7.168-10.752zM433.664 500.224H354.304c-3.584 0-6.656 3.584-6.656 8.704 0 4.096 2.048 8.704 6.656 8.704h14.848c6.656 17.408 2.048 34.304 2.048 34.304-10.752 32.256 0 53.76 0 53.76 5.12 14.336 3.584 30.208 2.56 35.84 0 1.536-0.512 2.048-0.512 2.048 24.576-5.632 42.496 5.632 42.496 5.632 2.048-2.56 3.072-5.12 4.096-8.192 5.12-15.872-2.048-34.304-2.048-34.304-7.68-20.992 0-44.032 0-44.032 6.656-17.92 5.12-36.864 3.584-47.616H435.2c3.072 0.512 5.632-3.072 5.632-7.68-1.024-3.584-4.608-7.168-7.168-7.168zM417.28 463.36c0.512 0.512 2.048 1.536 2.048 2.048 7.68 6.656 24.576 19.456 45.056 19.456 3.072 0 5.632-2.048 5.632-5.632s-2.048-5.632-5.12-5.632c-17.92 0-32.256-12.288-39.424-17.92-2.048-1.536-2.048-2.048-3.584-2.048-2.048-1.536-5.632-1.024-7.168 2.048-2.048 2.048-0.512 5.632 2.56 7.68zM514.56 598.528l-32.256-17.408c-1.536-0.512-2.048-0.512-3.584 0L450.56 599.04c-2.048 1.536-3.584 5.12-2.048 7.68 1.536 2.048 3.584 4.096 6.656 2.048l26.624-16.384 29.696 16.384c0.512 0.512 1.536 0.512 2.048 0.512 2.048 0 3.584-1.536 4.096-3.584 0.512-2.56-0.512-5.632-3.072-7.168zM492.032 484.352c20.992 0 37.376-13.824 45.056-19.456 1.536-0.512 3.072-2.048 3.072-2.048 2.048-1.536 3.584-5.12 2.048-7.68-1.536-2.048-4.096-3.584-7.168-2.048-0.512 0.512-2.048 1.536-3.584 2.048-7.68 5.632-22.528 17.92-39.424 17.92-2.048 0-5.12 2.048-5.12 5.632 0 3.584 2.048 5.632 5.12 5.632z" fill="#dbdbdb" p-id="6428"></path></svg>