<?xml version="1.0" standalone="no"?><!DOCTYPE svg PUBLIC "-//W3C//DTD SVG 1.1//EN" "http://www.w3.org/Graphics/SVG/1.1/DTD/svg11.dtd"><svg t="1524195966735" class="icon" style="" viewBox="0 0 1040 1024" version="1.1" xmlns="http://www.w3.org/2000/svg" p-id="15209" xmlns:xlink="http://www.w3.org/1999/xlink" width="203.125" height="200"><defs><style type="text/css"></style></defs><path d="M49.146327 829.969888c0 56.724932 45.789882 102.670357 102.21294 102.670357l205.367321 0c56.434314 0 102.21294-45.935192 102.21294-102.670357L458.939527 556.997843 151.359266 556.997843c-56.434314 0-102.21294 45.935192-102.21294 102.670357L49.146327 829.969888zM151.359266 522.848069l341.729012 0 0 307.121819c0 75.562976-61.036122 136.819109-136.361691 136.819109l-205.367321 0c-75.31022 0-136.361691-61.262272-136.361691-136.819109L14.997576 659.667178C14.997576 584.104201 76.033697 522.848069 151.359266 522.848069z" p-id="15210" fill="#999999"></path><path d="M49.146327 317.730435c0 56.724932 45.789882 102.670357 102.21294 102.670357l307.579237 0L458.938504 147.427724c0-56.724932-45.789882-102.670357-102.21294-102.670357l-205.367321 0c-56.434314 0-102.21294 45.935192-102.21294 102.670357L49.146327 317.730435 49.146327 317.730435zM151.359266 10.607592l205.367321 0c75.31022 0 136.361691 61.262272 136.361691 136.819109l0 307.121819L151.359266 454.54852c-75.31022 0-136.361691-61.262272-136.361691-136.819109L14.997576 147.427724C14.997576 71.863724 76.033697 10.607592 151.359266 10.607592z" p-id="15211" fill="#999999"></path><path d="M595.535555 556.997843l0 272.973068c0 56.724932 45.789882 102.670357 102.21294 102.670357l205.367321 0c56.434314 0 102.21294-45.935192 102.21294-102.670357L1005.328755 659.667178c0-56.724932-45.789882-102.670357-102.21294-102.670357L595.535555 556.997843 595.535555 556.997843zM903.115815 522.848069c75.31022 0 136.361691 61.262272 136.361691 136.819109l0 170.302711c0 75.562976-61.036122 136.819109-136.361691 136.819109l-205.367321 0c-75.31022 0-136.361691-61.262272-136.361691-136.819109L561.386804 522.848069 903.115815 522.848069z" p-id="15212" fill="#999999"></path><path d="M595.535555 420.399769l307.579237 0c56.434314 0 102.21294-45.935192 102.21294-102.670357L1005.327732 147.427724c0-56.724932-45.789882-102.670357-102.21294-102.670357l-205.367321 0c-56.434314 0-102.21294 45.935192-102.21294 102.670357L595.535555 420.399769 595.535555 420.399769zM697.748495 10.607592l205.367321 0c75.31022 0 136.361691 61.262272 136.361691 136.819109l0 170.302711c0 75.562976-61.036122 136.819109-136.361691 136.819109L561.386804 454.54852 561.386804 147.427724C561.386804 71.863724 622.422925 10.607592 697.748495 10.607592z" p-id="15213" fill="#999999"></path></svg>